<?xml version="1.0" encoding="UTF-8"?>
<svg id="Layer_2" data-name="Layer 2" xmlns="http://www.w3.org/2000/svg" xmlns:xlink="http://www.w3.org/1999/xlink" viewBox="0 0 136.08 155.93">
  <defs>
    <style>
      .cls-1 {
        fill: url(#linear-gradient);
      }

      .cls-1, .cls-2, .cls-3 {
        opacity: .75;
      }

      .cls-2 {
        fill: url(#linear-gradient-2);
      }

      .cls-3 {
        fill: #A55A1F;
      }
    </style>
    <linearGradient id="linear-gradient" x1="105.57" y1="0" x2="105.57" y2="155.93" gradientUnits="userSpaceOnUse">
      <stop offset=".1" stop-color="#1F2328"/>
      <stop offset=".5" stop-color="#A55A1F"/>
      <stop offset=".9" stop-color="#2F5D7E"/>
    </linearGradient>
    <linearGradient id="linear-gradient-2" x1="30.47" x2="30.47" y2="155.9" xlink:href="#linear-gradient"/>
  </defs>
  <g id="Layer_1-2" data-name="Layer 1">
    <g>
      <path class="cls-1" d="M136.06,8.64c-.16,1.38-.89,2.86-1.57,4.06l-42.54,66.2,23.93,68.13c.7,8.5-10.03,12.33-14.66,5.06-7.99-23.12-17.31-45.92-24.91-69.17-1.29-3.92-2.03-5.55.14-9.46L121.71,3.04c1.19-1.68,3.15-2.38,5-3.04h2.64c2.46.71,4.78,2.15,5.87,4.56.44.95.47,1.95.84,2.88-.03.39.05.81,0,1.2Z"/>
      <path class="cls-2" d="M59.76,82.68c-7.47,23.25-17.08,45.9-24.77,69.08-4.52,7.64-15.86,3.98-14.81-4.97l23.93-67.9L1.34,12.46l-1.34-3.1v-2.64C.94,3.13,3.13.94,6.72,0h2.64c1.68.57,3.13,1.15,4.41,2.43l46.47,72.32c1.35,3.27.51,4.85-.48,7.93Z"/>
      <path class="cls-3" d="M70.55,83.4c-8.54,3.75-12.19-10.26-3.17-11.34,6.66-.79,9.07,8.75,3.17,11.34Z"/>
    </g>
  </g>
</svg>
